<svg version="1" xmlns="http://www.w3.org/2000/svg" width="682.667" height="682.667" viewBox="0 0 512.000000 512.000000"><path d="M248.8.4c-.1.2-3 .6-6.4.9-22.2 2.1-48.3 10.7-67.7 22.3-34.6 20.8-61.5 58.9-68.7 97.3-3.5 18.7-3 49.3 1.1 66.6.5 2.2 1.2 4.9 1.4 5.9 4 17.2 17.7 40.1 32.2 53.7 10.4 9.9 30.2 22.2 43.2 26.9 10.2 3.7 10.4 3.7 9.6-.1-.8-3.7-.9-19 0-23.9 1.2-7.6 1.7-9.7 3.6-15.3 2.4-7.1 6.1-14.7 10.3-20.7 4.3-6.3 16.1-17.9 22.4-22 2.8-1.8 5.2-3.6 5.2-4 0-.4-3.9-2.1-8.7-3.9-14.5-5.5-33.2-14.4-42.9-20.4-18.1-11.2-28.2-27-30.9-48.2-.8-5.9-.7-18.7 0-23 .3-1.7 1-5.3 1.5-8.2 2.2-12.3 9.7-26.7 19-36.4 17.1-17.9 41.5-28.2 74.3-31.5 6.2-.6 26.4-.6 32.4 0 41.6 4.5 71.9 30.4 93.8 80.1 4.5 10.2 17.5 44.4 17.5 46 0 .1 2.7.2 6 .2 5.4 0 6-.2 6.1-2.1 0-1.2.1-29.9.2-63.9.2-54.2 0-61.7-1.3-61.8-7.8-.6-11.2 0-13.4 2.5-6.9 8.1-22.9 8.1-43.2.1-6.2-2.5-11.8-4.5-12.6-4.5-.8 0-1.8-.4-2.3-.8-1.8-1.6-25.7-8.2-37.5-10.4-5-.9-43.3-2.1-44.2-1.4z"/><path d="M264.4 206c-27.1 6.9-43.7 28.4-43.8 56.5 0 17.8 4.5 29.5 15.9 41.1 7.8 7.9 13.2 11.7 21.6 14.9 12.2 4.8 27.6 5.1 40.4.8 12-4.1 27-17.2 33.5-29.4 8.3-15.5 8.5-35.8.6-52.2-4-8.4-13.9-19.8-21.4-24.6-12.6-8.1-31.7-11-46.8-7.1z"/><path d="M359.3 231.7c4.1 12.7 4.9 17.5 5 28.8.2 14.1-.5 19.3-3.9 29.5-4.3 12.9-12.2 25.1-22.5 35.1l-4.7 4.6 8.1 5.3c12.2 8 22 18.2 26.1 27.2 1.8 4 3.9 9.5 4.5 12.3.6 2.7 1.4 6.1 1.8 7.5 1.3 5.5 1.1 36.5-.3 44.5-4.9 27.3-17.5 45.2-40.3 57.3-7 3.7-25.1 10.7-25.1 9.7 0-.2-1.4 0-3 .5-17.1 4.9-57.1 1.6-81-6.8-21.4-7.4-46.3-23.3-62.6-39.8-9.8-10-23.3-29.3-30.9-44.3-7.5-14.8-17.3-39.5-22.5-56.9l-2.2-7.2H93.4v157l3.1.1c7.9.4 8.4.2 14.8-6.3 4.7-4.8 7.5-6.8 10.9-7.7 8.8-2.5 20.1-1.6 32.2 2.4 45.9 15.2 69.6 21.6 93.6 25.5 9 1.4 15.9 1.7 31.5 1.5 11-.2 20.9-.5 22.1-.8 1.2-.3 4.5-.8 7.5-1.2 3-.4 7.2-1 9.4-1.5s5.5-1.2 7.4-1.5c1.9-.3 4.1-1 5-1.4.9-.5 1.9-.9 2.4-.9 1.7-.1 7.2-1.5 8.7-2.3.8-.5 4.7-2 8.5-3.5 28.9-11.1 56.5-31.4 72.9-53.7 11.4-15.4 21.6-37.9 26.1-57.2 3.1-13.5 3.5-16.4 3.9-32.7 1-40.3-12.9-69.7-44.8-95.3-6.3-5-22.7-16.1-26.1-17.6-1.1-.5-3.6-1.9-5.5-3.1-1.9-1.1-6.8-3.6-10.9-5.5-6.1-2.8-7.3-3.1-6.8-1.6z"/></svg>