<?xml version="1.0" encoding="UTF-8" standalone="no"?>
<!-- Created with Inkscape (http://www.inkscape.org/) -->

<svg
   xmlns:dc="http://purl.org/dc/elements/1.1/"
   xmlns:cc="http://creativecommons.org/ns#"
   xmlns:rdf="http://www.w3.org/1999/02/22-rdf-syntax-ns#"
   xmlns:svg="http://www.w3.org/2000/svg"
   xmlns="http://www.w3.org/2000/svg"
   xmlns:sodipodi="http://sodipodi.sourceforge.net/DTD/sodipodi-0.dtd"
   xmlns:inkscape="http://www.inkscape.org/namespaces/inkscape"
   width="11.35486mm"
   height="11.35486mm"
   viewBox="0 0 11.35486 11.35486"
   version="1.1"
   id="svg8"
   inkscape:version="0.92.2 5c3e80d, 2017-08-06"
   sodipodi:docname="favicon.svg"
   inkscape:export-filename="/Users/simongray/Code/sinostudy/resources/public/img/favicon.png"
   inkscape:export-xdpi="1145.3069"
   inkscape:export-ydpi="1145.3069">
  <defs
     id="defs2" />
  <sodipodi:namedview
     id="base"
     pagecolor="#ffffff"
     bordercolor="#666666"
     borderopacity="1.0"
     inkscape:pageopacity="0.0"
     inkscape:pageshadow="2"
     inkscape:zoom="3.959798"
     inkscape:cx="30.511684"
     inkscape:cy="38.00778"
     inkscape:document-units="mm"
     inkscape:current-layer="layer1"
     showgrid="false"
     inkscape:window-width="1440"
     inkscape:window-height="804"
     inkscape:window-x="0"
     inkscape:window-y="1"
     inkscape:window-maximized="1"
     inkscape:snap-text-baseline="false"
     showguides="true"
     fit-margin-top="0"
     fit-margin-left="0"
     fit-margin-right="0"
     fit-margin-bottom="0">
    <inkscape:grid
       type="xygrid"
       id="grid4686"
       originx="-6.8140532"
       originy="-5.1177635" />
  </sodipodi:namedview>
  <metadata
     id="metadata5">
    <rdf:RDF>
      <cc:Work
         rdf:about="">
        <dc:format>image/svg+xml</dc:format>
        <dc:type
           rdf:resource="http://purl.org/dc/dcmitype/StillImage" />
        <dc:title />
      </cc:Work>
    </rdf:RDF>
  </metadata>
  <g
     inkscape:label="Layer 1"
     inkscape:groupmode="layer"
     id="layer1"
     transform="translate(-6.8140533,-280.52738)">
    <text
       xml:space="preserve"
       style="font-style:normal;font-weight:normal;font-size:10.58333302px;line-height:1.25;font-family:sans-serif;letter-spacing:0px;word-spacing:0px;fill:#000000;fill-opacity:1;stroke:none;stroke-width:0.26458332px;stroke-linecap:butt;stroke-linejoin:miter;stroke-opacity:1"
       x="56.66114"
       y="47.370262"
       id="text155"><tspan
         sodipodi:role="line"
         id="tspan153"
         x="56.66114"
         y="56.734032"
         style="stroke-width:0.26458332px" /></text>
    <text
       xml:space="preserve"
       style="font-style:normal;font-weight:normal;font-size:20.63835526px;line-height:1.25;font-family:sans-serif;letter-spacing:0.02579795px;word-spacing:0px;fill:#000000;fill-opacity:1;stroke:none;stroke-width:0.51595896px;stroke-linecap:butt;stroke-linejoin:miter;stroke-opacity:1"
       x="12.801388"
       y="-279.82806"
       id="text151"
       transform="scale(0.99999751,-1.0000025)"><tspan
         sodipodi:role="line"
         id="tspan149"
         x="15.510172"
         y="-279.82806"
         style="font-style:normal;font-variant:normal;font-weight:normal;font-stretch:normal;font-size:24.76603127px;line-height:8.25534344px;font-family:Didot;-inkscape-font-specification:Didot;text-align:center;letter-spacing:5.41756916px;text-anchor:middle;stroke-width:0.51595896px"><tspan
           style="font-size:24.76603127px;line-height:8.25534344px;text-align:center;letter-spacing:5.41756916px;text-anchor:middle;fill:#bbbbbb;fill-opacity:1;stroke-width:0.51595896px"
           id="tspan4660">·</tspan><tspan
           style="font-size:24.76603127px;line-height:8.25534344px;text-align:center;letter-spacing:5.41756916px;text-anchor:middle;fill:#bb2222;fill-opacity:1;stroke-width:0.51595896px"
           id="tspan161" /></tspan></text>
    <path
       style="font-style:normal;font-weight:normal;font-size:20.75131035px;line-height:1.25;font-family:sans-serif;letter-spacing:0.02593915px;word-spacing:0px;fill:#c24f44;fill-opacity:1;stroke:none;stroke-width:0.51878268px;stroke-linecap:butt;stroke-linejoin:miter;stroke-opacity:1"
       d="m 14.559517,285.62009 c 0.09667,0.22271 0.145211,0.46673 0.145211,0.73174 0,0.52833 -0.191951,0.98467 -0.576193,1.36891 -0.04231,0.0423 -0.08611,0.0815 -0.130741,0.11885 0.156529,0.0925 0.304583,0.19364 0.439767,0.30748 0.33202,0.24902 0.497644,0.68897 0.497644,1.31982 0,0.73044 -0.207159,1.26168 -0.622185,1.5937 -0.415025,0.31542 -0.888319,0.47335 -1.419551,0.47335 -0.630838,0 -1.170279,-0.10819 -1.618506,-0.32401 -0.448227,-0.21581 -0.830247,-0.48963 -1.145666,-0.82165 -0.2988192,-0.34863 -0.5393093,-0.72244 -0.7219205,-1.12087 -0.1826112,-0.41502 -0.3323444,-0.82165 -0.4485516,-1.22008 h -0.273885 v 3.48661 h 0.273885 c 0.049803,-0.083 0.1164662,-0.15787 0.1994713,-0.22427 0.083005,-0.083 0.2158142,-0.12454 0.3984252,-0.12454 0.1826111,0 0.3815662,0.0415 0.5973796,0.12454 0.215813,0.0664 0.448617,0.14127 0.697632,0.22427 0.265616,0.083 0.547642,0.15736 0.84646,0.22376 0.315419,0.083 0.655904,0.12454 1.021126,0.12454 0.630839,0 1.186686,-0.0995 1.668116,-0.29869 0.49803,-0.19921 0.913381,-0.45662 1.245401,-0.77204 0.348622,-0.33203 0.60552,-0.71404 0.77153,-1.14567 0.182611,-0.43163 0.273885,-0.87159 0.273885,-1.31982 0,-0.76365 -0.248695,-1.37743 -0.746725,-1.84226 -0.376595,-0.35149 -0.834044,-0.64609 -1.372009,-0.88367 z"
       id="text151-7"
       inkscape:connector-curvature="0"
       sodipodi:nodetypes="cscccscsscccccccscccscccssc" />
    <text
       xml:space="preserve"
       style="font-style:normal;font-weight:normal;font-size:16.36135864px;line-height:1.25;font-family:sans-serif;letter-spacing:0.02045171px;word-spacing:0px;fill:#333333;fill-opacity:0;stroke:none;stroke-width:0.40903395px;stroke-linecap:butt;stroke-linejoin:miter;stroke-opacity:1"
       x="12.754392"
       y="-277.81155"
       id="text151-9"
       transform="scale(0.9999975,-1.0000025)"><tspan
         sodipodi:role="line"
         id="tspan149-0"
         x="14.90182"
         y="-277.81155"
         style="font-style:normal;font-variant:normal;font-weight:normal;font-stretch:normal;font-size:19.63363266px;line-height:6.54454327px;font-family:Didot;-inkscape-font-specification:Didot;text-align:center;letter-spacing:4.29485703px;text-anchor:middle;fill:#333333;fill-opacity:0;stroke-width:0.40903395px"><tspan
           style="font-size:19.63363266px;line-height:6.54454327px;text-align:center;letter-spacing:4.29485703px;text-anchor:middle;fill:#333333;fill-opacity:0;stroke-width:0.40903395px"
           id="tspan4660-5">·</tspan><tspan
           style="font-size:19.63363266px;line-height:6.54454327px;text-align:center;letter-spacing:4.29485703px;text-anchor:middle;fill:#333333;fill-opacity:0;stroke-width:0.40903395px"
           id="tspan161-2" /></tspan></text>
    <path
       style="font-style:normal;font-weight:normal;font-size:20.75131035px;line-height:1.25;font-family:sans-serif;letter-spacing:0.02593915px;word-spacing:0px;fill:#333333;fill-opacity:1;stroke:none;stroke-width:0.51878268px;stroke-linecap:butt;stroke-linejoin:miter;stroke-opacity:1"
       d="m 12.495043,280.52738 c -0.514631,0 -0.996129,0.0826 -1.444356,0.24856 -0.431626,0.16601 -0.804926,0.39882 -1.1203452,0.69764 -0.3154189,0.29882 -0.5646299,0.6475 -0.7472409,1.04593 -0.182611,0.39842 -0.273886,0.82966 -0.273886,1.29449 0,0.54784 0.07487,0.996 0.224276,1.34462 0.16601,0.34862 0.373169,0.63937 0.622184,0.87178 0.2490161,0.21582 0.5146341,0.39016 0.7968511,0.52297 0.131122,0.051 0.239169,0.0867 0.360702,0.13126 -0.01695,-0.10784 -0.02687,-0.21818 -0.02687,-0.3328 0,-0.52833 0.180309,-0.97251 0.540535,-1.33273 0.132555,-0.13256 0.274043,-0.24081 0.423747,-0.32763 -0.55925,-0.19807 -1.005141,-0.40733 -1.322917,-0.62839 -0.365222,-0.28222 -0.5477704,-0.68884 -0.5477704,-1.22008 0,-0.59764 0.2158794,-1.07093 0.6475064,-1.41955 0.448227,-0.36522 1.070738,-0.54777 1.867586,-0.54777 0.415025,0 0.771917,0.0749 1.070735,0.22427 0.315419,0.14941 0.572834,0.35709 0.772046,0.62271 0.215813,0.26561 0.398361,0.57276 0.54777,0.92139 0.14941,0.33202 0.282219,0.68019 0.398426,1.04541 h 0.273885 v -2.83859 h -0.273885 c -0.08301,0.13281 -0.215814,0.19948 -0.398426,0.19948 -0.18261,0 -0.340548,-0.0251 -0.473356,-0.0749 -0.132808,-0.0664 -0.282024,-0.12434 -0.448034,-0.17414 -0.16601,-0.0664 -0.364966,-0.12487 -0.59738,-0.17467 -0.215813,-0.0664 -0.506559,-0.0992 -0.871781,-0.0992 z"
       id="text151-7-2"
       inkscape:connector-curvature="0"
       sodipodi:nodetypes="ccscsccccscccscscccccccsccccc" />
  </g>
</svg>
