<?xml version="1.0" encoding="UTF-8" standalone="no"?>
<!-- Created with Inkscape (http://www.inkscape.org/) -->

<svg
   xmlns:dc="http://purl.org/dc/elements/1.1/"
   xmlns:cc="http://creativecommons.org/ns#"
   xmlns:rdf="http://www.w3.org/1999/02/22-rdf-syntax-ns#"
   xmlns:svg="http://www.w3.org/2000/svg"
   xmlns="http://www.w3.org/2000/svg"
   xmlns:sodipodi="http://sodipodi.sourceforge.net/DTD/sodipodi-0.dtd"
   xmlns:inkscape="http://www.inkscape.org/namespaces/inkscape"
   width="82.778412mm"
   height="16.788887mm"
   viewBox="0 0 82.778412 16.788887"
   version="1.1"
   id="svg8"
   inkscape:version="0.92.2 5c3e80d, 2017-08-06"
   sodipodi:docname="logo_min.svg">
  <defs
     id="defs2" />
  <sodipodi:namedview
     id="base"
     pagecolor="#ffffff"
     bordercolor="#666666"
     borderopacity="1.0"
     inkscape:pageopacity="0.0"
     inkscape:pageshadow="2"
     inkscape:zoom="1.979899"
     inkscape:cx="213.2079"
     inkscape:cy="74.74396"
     inkscape:document-units="mm"
     inkscape:current-layer="text4666"
     showgrid="false"
     inkscape:window-width="1440"
     inkscape:window-height="804"
     inkscape:window-x="0"
     inkscape:window-y="0"
     inkscape:window-maximized="1"
     inkscape:snap-text-baseline="false"
     showguides="true"
     fit-margin-top="0"
     fit-margin-left="0"
     fit-margin-right="0"
     fit-margin-bottom="0">
    <inkscape:grid
       type="xygrid"
       id="grid4686"
       originx="-1.7462399e-09"
       originy="-1.7233573e-05" />
  </sodipodi:namedview>
  <metadata
     id="metadata5">
    <rdf:RDF>
      <cc:Work
         rdf:about="">
        <dc:format>image/svg+xml</dc:format>
        <dc:type
           rdf:resource="http://purl.org/dc/dcmitype/StillImage" />
        <dc:title></dc:title>
      </cc:Work>
    </rdf:RDF>
  </metadata>
  <g
     inkscape:label="Layer 1"
     inkscape:groupmode="layer"
     id="layer1"
     transform="translate(0,-280.2111)">
    <g
       aria-label="sino·study"
       style="font-style:normal;font-weight:normal;font-size:10.58333302px;line-height:1.25;font-family:sans-serif;letter-spacing:0.01322917px;word-spacing:0px;fill:#000000;fill-opacity:1;stroke:none;stroke-width:0.26458332px;stroke-linecap:butt;stroke-linejoin:miter;stroke-opacity:1"
       id="text151">
      <path
         d="M 4.1267276e-7,287.5898 H 0.13970042 q 0.0889,0.3048 0.22860001,0.6223 0.13970001,0.3048 0.36830003,0.5715 0.24130001,0.254 0.58420004,0.4191 0.3429,0.1651 0.8255,0.1651 0.4064001,0 0.7239001,-0.2413 0.3175,-0.254 0.3175,-0.8128 0,-0.4826 -0.254,-0.6731 -0.2413,-0.2032 -0.5715,-0.3175 l -0.9906001,-0.3429 q -0.1905,-0.0635 -0.41910003,-0.1524 -0.21590001,-0.1016 -0.40640002,-0.2667 -0.19050002,-0.1778 -0.31750002,-0.4445 -0.11430001,-0.2667 -0.11430001,-0.6858 0,-0.3556 0.13970001,-0.6604 0.13970001,-0.3048 0.38100002,-0.5334 0.24130002,-0.2286 0.57150005,-0.3556 0.3429,-0.127 0.7366,-0.127 0.2794,0 0.4445001,0.0508 0.1778,0.0381 0.3048,0.0889 0.127,0.0381 0.2286,0.0889 0.1016,0.0381 0.2413,0.0381 0.1397,0 0.2032,-0.1016 h 0.1397 v 1.4478 h -0.1397 q -0.0889,-0.2794 -0.2032,-0.5334 -0.1143,-0.2667 -0.2794,-0.4699 -0.1524,-0.2032 -0.3937,-0.3175 -0.2286001,-0.1143 -0.5461001,-0.1143 -0.6096,0 -0.95250003,0.2794 -0.33020002,0.2667 -0.33020002,0.7239 0,0.4064 0.27940002,0.6223 0.29210003,0.2032 0.85090003,0.381 l 0.9271001,0.3048 q 0.5969,0.2032 0.9779,0.5588 0.3810001,0.3556 0.3810001,0.9398 0,0.3429 -0.1397001,0.6731 -0.127,0.3302 -0.3937,0.5842 -0.254,0.2413 -0.635,0.3937 -0.3683,0.1524 -0.8509001,0.1524 -0.2794,0 -0.5207,-0.0635 -0.2286,-0.0508 -0.4318,-0.1143 -0.19050003,-0.0635 -0.35560004,-0.1143 -0.16510001,-0.0635 -0.30480002,-0.0635 -0.13970001,0 -0.20320001,0.0635 -0.0635,0.0508 -0.10160001,0.1143 H 4.1267276e-7 Z"
         style="font-size:12.70000076px;line-height:4.23333311px;text-align:center;letter-spacing:2.77812505px;text-anchor:middle;fill:#333333"
         id="path4727" />
      <path
         d="m 8.6554473,280.9604 q 0,-0.2794 0.1905,-0.4699 0.2032,-0.2032 0.4826001,-0.2032 0.2794,0 0.4699,0.2032 0.2031996,0.1905 0.2031996,0.4699 0,0.2794 -0.2031996,0.4826 -0.1905,0.1905 -0.4699,0.1905 -0.2794001,0 -0.4826001,-0.1905 -0.1905,-0.2032 -0.1905,-0.4826 z m -0.8255,8.2296 h 0.9779 v -5.0927 h -0.9779 v -0.1778 h 2.0701001 v 5.2705 h 0.9778996 v 0.1778 H 7.8299473 Z"
         style="font-size:12.70000076px;line-height:4.23333311px;text-align:center;letter-spacing:2.77812505px;text-anchor:middle;fill:#333333"
         id="path4729" />
      <path
         d="m 14.340285,289.19 h 0.9779 v -5.0927 h -0.9779 v -0.1778 h 2.0447 v 1.3589 h 0.0254 q 0.0762,-0.1651 0.2159,-0.4191 0.1524,-0.254 0.4064,-0.4953 0.254001,-0.2413 0.635001,-0.4064 0.381,-0.1778 0.9271,-0.1778 0.8382,0 1.3589,0.4064 0.5334,0.4064 0.5334,1.2954 v 3.7084 h 0.9779 v 0.1778 h -3.048 V 289.19 h 0.9779 v -4.1021 q 0,-0.4953 -0.2413,-0.8128 -0.2286,-0.3175 -0.7239,-0.3175 -0.4064,0 -0.7747,0.1778 -0.3683,0.1778 -0.647701,0.4953 -0.2794,0.3175 -0.4445,0.7493 -0.1524,0.4318 -0.1524,0.9398 v 2.8702 h 0.977901 v 0.1778 h -3.048001 z"
         style="font-size:12.70000076px;line-height:4.23333311px;text-align:center;letter-spacing:2.77812505px;text-anchor:middle;fill:#333333"
         id="path4731" />
      <path
         d="m 26.406279,286.65 q 0,0.9017 0.1397,1.4351 0.1397,0.5334 0.3683,0.8255 0.2286,0.2794 0.5334,0.3683 0.3048,0.0889 0.6477,0.0889 0.3429,0 0.6477,-0.0889 0.3048,-0.0889 0.5334,-0.3683 0.2286,-0.2921 0.3683,-0.8255 0.1397,-0.5334 0.1397,-1.4351 0,-0.762 -0.1016,-1.27 -0.1016,-0.5207 -0.3175,-0.8382 -0.2032,-0.3302 -0.5207,-0.4699 -0.3175,-0.1397 -0.7493,-0.1397 -0.4318,0 -0.7493,0.1397 -0.3175,0.1397 -0.5334,0.4699 -0.2032,0.3175 -0.3048,0.8382 -0.1016,0.508 -0.1016,1.27 z m -1.270001,0 q 0,-0.6223 0.266701,-1.1557 0.2794,-0.5334 0.6985,-0.9144 0.4318,-0.3937 0.9525,-0.6096 0.5334,-0.2159 1.0414,-0.2159 0.508,0 1.0287,0.2159 0.5334,0.2159 0.9525,0.6096 0.4318,0.381 0.6985,0.9144 0.2794,0.5334 0.2794,1.1557 0,0.5969 -0.254,1.1303 -0.254,0.5207 -0.6731,0.9144 -0.4064,0.3937 -0.9398,0.6223 -0.5334,0.2286 -1.0922,0.2286 -0.5588,0 -1.0922,-0.2286 -0.5334,-0.2286 -0.9525,-0.6223 -0.4064,-0.3937 -0.6604,-0.9144 -0.254001,-0.5334 -0.254001,-1.1303 z"
         style="font-size:12.70000076px;line-height:4.23333311px;text-align:center;letter-spacing:2.77812505px;text-anchor:middle;fill:#333333"
         id="path4733" />
      <path
         d="m 35.50444,286.015 q 0,-0.2794 0.1905,-0.4699 0.2032,-0.2032 0.4826,-0.2032 0.2794,0 0.4699,0.2032 0.2032,0.1905 0.2032,0.4699 0,0.2794 -0.2032,0.4826 -0.1905,0.1905 -0.4699,0.1905 -0.2794,0 -0.4826,-0.1905 -0.1905,-0.2032 -0.1905,-0.4826 z"
         style="font-size:12.70000076px;line-height:4.23333311px;text-align:center;letter-spacing:2.77812505px;text-anchor:middle;fill:#bbbbbb;fill-opacity:1"
         id="path4735" />
      <path
         d="m 41.423832,287.5898 h 0.1397 q 0.0889,0.3048 0.2286,0.6223 0.1397,0.3048 0.3683,0.5715 0.2413,0.254 0.5842,0.4191 0.3429,0.1651 0.8255,0.1651 0.406401,0 0.723901,-0.2413 0.3175,-0.254 0.3175,-0.8128 0,-0.4826 -0.254,-0.6731 -0.2413,-0.2032 -0.571501,-0.3175 l -0.9906,-0.3429 q -0.1905,-0.0635 -0.4191,-0.1524 -0.2159,-0.1016 -0.4064,-0.2667 -0.1905,-0.1778 -0.3175,-0.4445 -0.1143,-0.2667 -0.1143,-0.6858 0,-0.3556 0.1397,-0.6604 0.1397,-0.3048 0.381,-0.5334 0.2413,-0.2286 0.5715,-0.3556 0.3429,-0.127 0.7366,-0.127 0.2794,0 0.4445,0.0508 0.177801,0.0381 0.304801,0.0889 0.127,0.0381 0.2286,0.0889 0.1016,0.0381 0.2413,0.0381 0.1397,0 0.2032,-0.1016 h 0.1397 v 1.4478 h -0.1397 q -0.0889,-0.2794 -0.2032,-0.5334 -0.1143,-0.2667 -0.2794,-0.4699 -0.1524,-0.2032 -0.3937,-0.3175 -0.228601,-0.1143 -0.546101,-0.1143 -0.6096,0 -0.9525,0.2794 -0.3302,0.2667 -0.3302,0.7239 0,0.4064 0.2794,0.6223 0.2921,0.2032 0.8509,0.381 l 0.927101,0.3048 q 0.5969,0.2032 0.9779,0.5588 0.381,0.3556 0.381,0.9398 0,0.3429 -0.1397,0.6731 -0.127,0.3302 -0.3937,0.5842 -0.254,0.2413 -0.635,0.3937 -0.3683,0.1524 -0.850901,0.1524 -0.2794,0 -0.5207,-0.0635 -0.2286,-0.0508 -0.4318,-0.1143 -0.1905,-0.0635 -0.3556,-0.1143 -0.1651,-0.0635 -0.3048,-0.0635 -0.1397,0 -0.2032,0.0635 -0.0635,0.0508 -0.1016,0.1143 h -0.1397 z"
         style="font-size:12.70000076px;line-height:4.23333311px;text-align:center;letter-spacing:2.77812505px;text-anchor:middle;fill:#bb2222;fill-opacity:1"
         id="path4737" />
      <path
         d="m 49.114079,283.9195 h 0.9779 v -1.6383 q 0.1016,0.0381 0.1905,0.0635 0.0889,0.0254 0.3048,0.0254 0.1905,0 0.3302,-0.0381 0.1397,-0.0508 0.2667,-0.1524 v 1.7399 h 1.8034 v 0.1778 h -1.8034 v 4.1529 q 0,0.3556 0.0635,0.5842 0.0762,0.2159 0.1905,0.3429 0.1143,0.1143 0.2413,0.1524 0.1397,0.0381 0.2667,0.0381 0.4445,0 0.7112,-0.3175 0.2794,-0.3302 0.3556,-0.7493 l 0.1778,0.0635 q -0.0381,0.1651 -0.1143,0.3683 -0.0762,0.2032 -0.2413,0.3937 -0.1524,0.1778 -0.4064,0.2921 -0.254,0.127 -0.635,0.127 -0.9525,0 -1.3335,-0.3683 -0.3683,-0.3683 -0.3683,-1.0414 v -4.0386 h -0.9779 z"
         style="font-size:12.70000076px;line-height:4.23333311px;text-align:center;letter-spacing:2.77812505px;text-anchor:middle;fill:#bb2222;fill-opacity:1"
         id="path4739" />
      <path
         d="m 63.144205,289.3678 h -2.0447 v -1.2827 h -0.0254 q -0.1143,0.254 -0.2794,0.5207 -0.1524,0.254 -0.3937,0.4699 -0.2286,0.2032 -0.5461,0.3302 -0.3048,0.1397 -0.7239,0.1397 -0.508,0 -0.8255,-0.1143 -0.3175,-0.1143 -0.4953,-0.2413 -0.0889,-0.0635 -0.2032,-0.1524 -0.1016,-0.1016 -0.1905,-0.2667 -0.0889,-0.1651 -0.1524,-0.4191 -0.0635,-0.2667 -0.0635,-0.6477 v -3.6068 h -0.9779 v -0.1778 h 2.0701 v 3.8989 q 0,0.3302 0.0381,0.6096 0.0508,0.2794 0.1778,0.4953 0.127,0.2032 0.3302,0.3302 0.2032,0.1143 0.5334,0.1143 0.2794,0 0.5715,-0.1651 0.3048,-0.1651 0.5461,-0.4699 0.254,-0.3048 0.4191,-0.7239 0.1651,-0.4318 0.1651,-0.9652 v -2.9464 h -0.9652 v -0.1778 h 2.0574 v 5.2705 h 0.9779 z"
         style="font-size:12.70000076px;line-height:4.23333311px;text-align:center;letter-spacing:2.77812505px;text-anchor:middle;fill:#bb2222;fill-opacity:1"
         id="path4741" />
      <path
         d="m 68.167054,286.4595 q 0,0.6604 0.0381,1.2065 0.0381,0.5334 0.1905,0.9144 0.1524,0.381 0.4572,0.5842 0.3048,0.2032 0.8255,0.2032 0.5334,0 0.8509,-0.2286 0.3302,-0.2286 0.508,-0.5842 0.1778,-0.3683 0.2413,-0.8128 0.0635,-0.4445 0.0635,-0.8636 0,-0.4953 -0.0254,-0.8509 -0.0127,-0.3683 -0.0635,-0.6477 -0.0508,-0.2794 -0.1397,-0.4826 -0.0889,-0.2032 -0.2159,-0.381 -0.1905,-0.254 -0.4953,-0.4191 -0.3048,-0.1651 -0.7747,-0.1651 -0.4445,0 -0.7366,0.1778 -0.2794,0.1778 -0.4445,0.508 -0.1524,0.3302 -0.2159,0.8001 -0.0635,0.4572 -0.0635,1.0414 z m 2.1971,-6.2484 h 2.0701 v 8.9789 h 0.9779 v 0.1778 h -2.0447 v -1.1049 h -0.0254 q -0.0508,0.1524 -0.1524,0.3683 -0.1016,0.2159 -0.3048,0.4191 -0.1905,0.2032 -0.4953,0.3429 -0.2921,0.1524 -0.7239,0.1524 -0.5588,0 -1.0668,-0.2413 -0.4953,-0.2413 -0.8763,-0.6477 -0.381,-0.4064 -0.6096,-0.9271 -0.215901,-0.5334 -0.215901,-1.1176 0,-0.5715 0.215901,-1.0922 0.2159,-0.5207 0.5842,-0.9017 0.3683,-0.3937 0.8509,-0.6223 0.4826,-0.2413 1.0287,-0.2413 0.6985,0 1.1303,0.3429 0.4318,0.3429 0.6096,0.8382 h 0.0254 v -4.5466 h -0.9779 z"
         style="font-size:12.70000076px;line-height:4.23333311px;text-align:center;letter-spacing:2.77812505px;text-anchor:middle;fill:#bb2222;fill-opacity:1"
         id="path4743" />
      <path
         d="m 76.49191,283.9195 h 3.1115 v 0.1778 h -1.0668 l 1.6383,3.9878 1.7145,-3.9878 h -1.0541 v -0.1778 h 1.9431 v 0.1778 h -0.6858 l -2.0955,4.9022 q -0.2413,0.5461 -0.4572,1.0922 -0.2159,0.5588 -0.4318,1.1176 -0.1778,0.4572 -0.3556,0.8001 -0.1778,0.3429 -0.381,0.5588 -0.1905,0.2159 -0.4191,0.3175 -0.2286,0.1143 -0.5334,0.1143 -0.3683,0 -0.5969,-0.1143 -0.2159,-0.1143 -0.3429,-0.2667 -0.127,-0.1524 -0.1651,-0.3175 -0.0381,-0.1651 -0.0381,-0.2794 0,-0.3175 0.1778,-0.4826 0.1778,-0.1524 0.4318,-0.1524 0.0889,0 0.1905,0.0127 0.1016,0.0254 0.1905,0.0762 0.0889,0.0508 0.1524,0.1397 0.0635,0.0889 0.0635,0.2159 0,0.1778 -0.1143,0.3302 -0.1016,0.1651 -0.1016,0.3556 0,0.1651 0.0889,0.2159 0.0889,0.0508 0.2413,0.0508 0.2032,0 0.3683,-0.1016 0.1778,-0.0889 0.3429,-0.3048 0.1651,-0.2159 0.3302,-0.5715 0.1651,-0.3429 0.3683,-0.8509 l 0.5588,-1.4224 -2.1971,-5.4356 h -0.8763 z"
         style="font-size:12.70000076px;line-height:4.23333311px;text-align:center;letter-spacing:2.77812505px;text-anchor:middle;fill:#bb2222;fill-opacity:1"
         id="path4745" />
    </g>
    <text
       xml:space="preserve"
       style="font-style:normal;font-weight:normal;font-size:10.58333302px;line-height:1.25;font-family:sans-serif;letter-spacing:0px;word-spacing:0px;fill:#000000;fill-opacity:1;stroke:none;stroke-width:0.26458332px;stroke-linecap:butt;stroke-linejoin:miter;stroke-opacity:1"
       x="56.66114"
       y="47.370262"
       id="text155"><tspan
         sodipodi:role="line"
         id="tspan153"
         x="56.66114"
         y="56.734032"
         style="stroke-width:0.26458332px" /></text>
    <g
       aria-label="THE MULTITOOL FOR LEARNING CHINESE"
       style="font-style:normal;font-variant:normal;font-weight:normal;font-stretch:normal;font-size:3.39425445px;line-height:1.25;font-family:'Gill Sans';-inkscape-font-specification:'Gill Sans, Normal';font-variant-ligatures:normal;font-variant-caps:normal;font-variant-numeric:normal;font-feature-settings:normal;text-align:start;letter-spacing:0px;word-spacing:0px;writing-mode:lr-tb;text-anchor:start;fill:#aaaaaa;fill-opacity:1;stroke:none;stroke-width:0.2121409px;stroke-linecap:butt;stroke-linejoin:miter;stroke-opacity:1"
       id="text4666">
      <path
         d="m 0,295.18421 h 1.489116 v 0.22713 H 0.86769397 v 1.55802 H 0.61121384 v -1.55802 H 0 Z"
         style="font-style:normal;font-variant:normal;font-weight:normal;font-stretch:normal;font-size:2.61329007px;font-family:'Gill Sans';-inkscape-font-specification:'Gill Sans, Normal';font-variant-ligatures:normal;font-variant-caps:normal;font-variant-numeric:normal;font-feature-settings:normal;text-align:start;letter-spacing:0.97998369px;writing-mode:lr-tb;text-anchor:start;fill:#aaaaaa;fill-opacity:1;stroke-width:0.2121409px"
         id="path4748" />
      <path
         d="m 3.9658718,295.18676 h 0.2552041 v 1.7826 H 3.9658718 v -0.77582 H 2.9641957 v 0.77582 H 2.7089916 v -1.7826 h 0.2552041 v 0.77072 h 1.0016761 z"
         style="font-style:normal;font-variant:normal;font-weight:normal;font-stretch:normal;font-size:2.61329007px;font-family:'Gill Sans';-inkscape-font-specification:'Gill Sans, Normal';font-variant-ligatures:normal;font-variant-caps:normal;font-variant-numeric:normal;font-feature-settings:normal;text-align:start;letter-spacing:0.97998369px;writing-mode:lr-tb;text-anchor:start;fill:#aaaaaa;fill-opacity:1;stroke-width:0.2121409px"
         id="path4750" />
      <path
         d="m 5.5927978,295.18676 h 1.0106083 v 0.22713 H 5.8480019 v 0.54359 h 0.7298838 v 0.2284 H 5.8480019 v 0.5538 h 0.7796486 v 0.22713 H 5.5927978 Z"
         style="font-style:normal;font-variant:normal;font-weight:normal;font-stretch:normal;font-size:2.61329007px;font-family:'Gill Sans';-inkscape-font-specification:'Gill Sans, Normal';font-variant-ligatures:normal;font-variant-caps:normal;font-variant-numeric:normal;font-feature-settings:normal;text-align:start;letter-spacing:0.97998369px;writing-mode:lr-tb;text-anchor:start;fill:#aaaaaa;fill-opacity:1;stroke-width:0.2121409px"
         id="path4752" />
      <path
         d="m 11.003125,295.18676 h 0.23734 v 1.7826 h -0.256481 v -1.38703 l -0.548688,0.68905 h -0.04721 L 9.83429,295.58233 v 1.38703 H 9.5790858 v -1.7826 h 0.2398919 l 0.5933493,0.73244 z"
         style="font-style:normal;font-variant:normal;font-weight:normal;font-stretch:normal;font-size:2.61329007px;font-family:'Gill Sans';-inkscape-font-specification:'Gill Sans, Normal';font-variant-ligatures:normal;font-variant-caps:normal;font-variant-numeric:normal;font-feature-settings:normal;text-align:start;letter-spacing:0.97998369px;writing-mode:lr-tb;text-anchor:start;fill:#aaaaaa;fill-opacity:1;stroke-width:0.2121409px"
         id="path4754" />
      <path
         d="m 13.846099,295.18676 h 0.25648 v 1.01188 q 0,0.20544 -0.03063,0.31008 -0.02935,0.10463 -0.07401,0.17481 -0.04338,0.0689 -0.107185,0.12378 -0.21182,0.18247 -0.553793,0.18247 -0.348354,0 -0.558897,-0.1812 -0.0638,-0.0561 -0.108462,-0.12505 -0.04339,-0.0702 -0.07273,-0.17099 -0.02807,-0.1008 -0.02807,-0.31645 v -1.00933 h 0.25648 v 1.01188 q 0,0.25138 0.05742,0.34963 0.05742,0.0983 0.174815,0.15823 0.117394,0.0587 0.276897,0.0587 0.227131,0 0.370046,-0.11867 0.07528,-0.0638 0.108461,-0.15057 0.03318,-0.0868 0.03318,-0.29732 z"
         style="font-style:normal;font-variant:normal;font-weight:normal;font-stretch:normal;font-size:2.61329007px;font-family:'Gill Sans';-inkscape-font-specification:'Gill Sans, Normal';font-variant-ligatures:normal;font-variant-caps:normal;font-variant-numeric:normal;font-feature-settings:normal;text-align:start;letter-spacing:0.97998369px;writing-mode:lr-tb;text-anchor:start;fill:#aaaaaa;fill-opacity:1;stroke-width:0.2121409px"
         id="path4756" />
      <path
         d="m 15.438572,295.18676 h 0.255205 v 1.55036 h 0.802616 v 0.23224 h -1.057821 z"
         style="font-style:normal;font-variant:normal;font-weight:normal;font-stretch:normal;font-size:2.61329007px;font-family:'Gill Sans';-inkscape-font-specification:'Gill Sans, Normal';font-variant-ligatures:normal;font-variant-caps:normal;font-variant-numeric:normal;font-feature-settings:normal;text-align:start;letter-spacing:0.97998369px;writing-mode:lr-tb;text-anchor:start;fill:#aaaaaa;fill-opacity:1;stroke-width:0.2121409px"
         id="path4758" />
      <path
         d="m 17.287525,295.18421 h 1.489116 v 0.22713 h -0.621422 v 1.55802 h -0.25648 v -1.55802 h -0.611214 z"
         style="font-style:normal;font-variant:normal;font-weight:normal;font-stretch:normal;font-size:2.61329007px;font-family:'Gill Sans';-inkscape-font-specification:'Gill Sans, Normal';font-variant-ligatures:normal;font-variant-caps:normal;font-variant-numeric:normal;font-feature-settings:normal;text-align:start;letter-spacing:0.97998369px;writing-mode:lr-tb;text-anchor:start;fill:#aaaaaa;fill-opacity:1;stroke-width:0.2121409px"
         id="path4760" />
      <path
         d="m 19.99907,295.18676 h 0.255204 v 1.7826 H 19.99907 Z"
         style="font-style:normal;font-variant:normal;font-weight:normal;font-stretch:normal;font-size:2.61329007px;font-family:'Gill Sans';-inkscape-font-specification:'Gill Sans, Normal';font-variant-ligatures:normal;font-variant-caps:normal;font-variant-numeric:normal;font-feature-settings:normal;text-align:start;letter-spacing:0.97998369px;writing-mode:lr-tb;text-anchor:start;fill:#aaaaaa;fill-opacity:1;stroke-width:0.2121409px"
         id="path4762" />
      <path
         d="m 21.477978,295.18421 h 1.489116 v 0.22713 h -0.621422 v 1.55802 h -0.25648 v -1.55802 h -0.611214 z"
         style="font-style:normal;font-variant:normal;font-weight:normal;font-stretch:normal;font-size:2.61329007px;font-family:'Gill Sans';-inkscape-font-specification:'Gill Sans, Normal';font-variant-ligatures:normal;font-variant-caps:normal;font-variant-numeric:normal;font-feature-settings:normal;text-align:start;letter-spacing:0.97998369px;writing-mode:lr-tb;text-anchor:start;fill:#aaaaaa;fill-opacity:1;stroke-width:0.2121409px"
         id="path4764" />
      <path
         d="m 24.893884,295.16124 q 0.413431,0 0.687775,0.26158 0.275621,0.26159 0.275621,0.65588 0,0.39429 -0.278173,0.65332 -0.276896,0.25776 -0.699259,0.25776 -0.403222,0 -0.672463,-0.25776 -0.267964,-0.25903 -0.267964,-0.64822 0,-0.39939 0.270516,-0.66098 0.270517,-0.26158 0.683947,-0.26158 z m 0.01021,0.24244 q -0.306244,0 -0.504028,0.19141 -0.196507,0.1914 -0.196507,0.48871 0,0.28838 0.197783,0.47979 0.197784,0.1914 0.495096,0.1914 0.298589,0 0.497648,-0.19523 0.200336,-0.19523 0.200336,-0.48617 0,-0.28327 -0.200336,-0.47595 -0.199059,-0.19396 -0.489992,-0.19396 z"
         style="font-style:normal;font-variant:normal;font-weight:normal;font-stretch:normal;font-size:2.61329007px;font-family:'Gill Sans';-inkscape-font-specification:'Gill Sans, Normal';font-variant-ligatures:normal;font-variant-caps:normal;font-variant-numeric:normal;font-feature-settings:normal;text-align:start;letter-spacing:0.97998369px;writing-mode:lr-tb;text-anchor:start;fill:#aaaaaa;fill-opacity:1;stroke-width:0.2121409px"
         id="path4766" />
      <path
         d="m 28.02779,295.16124 q 0.41343,0 0.687775,0.26158 0.27562,0.26159 0.27562,0.65588 0,0.39429 -0.278172,0.65332 -0.276897,0.25776 -0.69926,0.25776 -0.403222,0 -0.672462,-0.25776 -0.267965,-0.25903 -0.267965,-0.64822 0,-0.39939 0.270517,-0.66098 0.270516,-0.26158 0.683947,-0.26158 z m 0.01021,0.24244 q -0.306245,0 -0.504028,0.19141 -0.196507,0.1914 -0.196507,0.48871 0,0.28838 0.197783,0.47979 0.197783,0.1914 0.495096,0.1914 0.298589,0 0.497648,-0.19523 0.200335,-0.19523 0.200335,-0.48617 0,-0.28327 -0.200335,-0.47595 -0.199059,-0.19396 -0.489992,-0.19396 z"
         style="font-style:normal;font-variant:normal;font-weight:normal;font-stretch:normal;font-size:2.61329007px;font-family:'Gill Sans';-inkscape-font-specification:'Gill Sans, Normal';font-variant-ligatures:normal;font-variant-caps:normal;font-variant-numeric:normal;font-feature-settings:normal;text-align:start;letter-spacing:0.97998369px;writing-mode:lr-tb;text-anchor:start;fill:#aaaaaa;fill-opacity:1;stroke-width:0.2121409px"
         id="path4768" />
      <path
         d="m 30.286347,295.18676 h 0.255204 v 1.55036 h 0.802617 v 0.23224 h -1.057821 z"
         style="font-style:normal;font-variant:normal;font-weight:normal;font-stretch:normal;font-size:2.61329007px;font-family:'Gill Sans';-inkscape-font-specification:'Gill Sans, Normal';font-variant-ligatures:normal;font-variant-caps:normal;font-variant-numeric:normal;font-feature-settings:normal;text-align:start;letter-spacing:0.97998369px;writing-mode:lr-tb;text-anchor:start;fill:#aaaaaa;fill-opacity:1;stroke-width:0.2121409px"
         id="path4770" />
      <path
         d="m 34.254771,295.18676 h 0.950635 v 0.22713 h -0.695431 v 0.49765 h 0.695431 v 0.22713 h -0.695431 v 0.83069 h -0.255204 z"
         style="font-style:normal;font-variant:normal;font-weight:normal;font-stretch:normal;font-size:2.61329007px;font-family:'Gill Sans';-inkscape-font-specification:'Gill Sans, Normal';font-variant-ligatures:normal;font-variant-caps:normal;font-variant-numeric:normal;font-feature-settings:normal;text-align:start;letter-spacing:0.97998369px;writing-mode:lr-tb;text-anchor:start;fill:#aaaaaa;fill-opacity:1;stroke-width:0.2121409px"
         id="path4772" />
      <path
         d="m 37.332533,295.16124 q 0.41343,0 0.687775,0.26158 0.27562,0.26159 0.27562,0.65588 0,0.39429 -0.278172,0.65332 -0.276897,0.25776 -0.69926,0.25776 -0.403222,0 -0.672463,-0.25776 -0.267964,-0.25903 -0.267964,-0.64822 0,-0.39939 0.270517,-0.66098 0.270516,-0.26158 0.683947,-0.26158 z m 0.01021,0.24244 q -0.306245,0 -0.504028,0.19141 -0.196508,0.1914 -0.196508,0.48871 0,0.28838 0.197784,0.47979 0.197783,0.1914 0.495096,0.1914 0.298588,0 0.497648,-0.19523 0.200335,-0.19523 0.200335,-0.48617 0,-0.28327 -0.200335,-0.47595 -0.19906,-0.19396 -0.489992,-0.19396 z"
         style="font-style:normal;font-variant:normal;font-weight:normal;font-stretch:normal;font-size:2.61329007px;font-family:'Gill Sans';-inkscape-font-specification:'Gill Sans, Normal';font-variant-ligatures:normal;font-variant-caps:normal;font-variant-numeric:normal;font-feature-settings:normal;text-align:start;letter-spacing:0.97998369px;writing-mode:lr-tb;text-anchor:start;fill:#aaaaaa;fill-opacity:1;stroke-width:0.2121409px"
         id="path4774" />
      <path
         d="m 39.598742,296.96936 v -1.7826 h 0.446607 q 0.270517,0 0.428743,0.13398 0.159503,0.13398 0.159503,0.36239 0,0.15568 -0.07784,0.26924 -0.07784,0.11357 -0.223303,0.16971 0.08549,0.0562 0.167159,0.15313 0.08167,0.097 0.229683,0.33814 0.09315,0.15185 0.149295,0.22841 l 0.09443,0.1276 h -0.303693 l -0.07784,-0.11739 q -0.0038,-0.006 -0.01531,-0.0217 l -0.04977,-0.0702 -0.07911,-0.13015 -0.08549,-0.13909 q -0.07911,-0.10974 -0.145466,-0.17481 -0.06508,-0.0651 -0.11867,-0.0931 -0.05232,-0.0294 -0.177367,-0.0294 h -0.06635 v 0.77582 z m 0.331765,-1.56568 h -0.07656 v 0.56273 h 0.09698 q 0.193955,0 0.265412,-0.0332 0.07273,-0.0332 0.11229,-0.0995 0.04083,-0.0676 0.04083,-0.15312 0,-0.0842 -0.04466,-0.15185 -0.04466,-0.0689 -0.126326,-0.097 -0.08039,-0.0281 -0.267965,-0.0281 z"
         style="font-style:normal;font-variant:normal;font-weight:normal;font-stretch:normal;font-size:2.61329007px;font-family:'Gill Sans';-inkscape-font-specification:'Gill Sans, Normal';font-variant-ligatures:normal;font-variant-caps:normal;font-variant-numeric:normal;font-feature-settings:normal;text-align:start;letter-spacing:0.97998369px;writing-mode:lr-tb;text-anchor:start;fill:#aaaaaa;fill-opacity:1;stroke-width:0.2121409px"
         id="path4776" />
      <path
         d="M 43.852995,295.18676 H 44.1082 v 1.55036 h 0.802616 v 0.23224 h -1.057821 z"
         style="font-style:normal;font-variant:normal;font-weight:normal;font-stretch:normal;font-size:2.61329007px;font-family:'Gill Sans';-inkscape-font-specification:'Gill Sans, Normal';font-variant-ligatures:normal;font-variant-caps:normal;font-variant-numeric:normal;font-feature-settings:normal;text-align:start;letter-spacing:0.97998369px;writing-mode:lr-tb;text-anchor:start;fill:#aaaaaa;fill-opacity:1;stroke-width:0.2121409px"
         id="path4778" />
      <path
         d="m 46.114104,295.18676 h 1.010608 v 0.22713 h -0.755404 v 0.54359 h 0.729884 v 0.2284 h -0.729884 v 0.5538 h 0.779648 v 0.22713 h -1.034852 z"
         style="font-style:normal;font-variant:normal;font-weight:normal;font-stretch:normal;font-size:2.61329007px;font-family:'Gill Sans';-inkscape-font-specification:'Gill Sans, Normal';font-variant-ligatures:normal;font-variant-caps:normal;font-variant-numeric:normal;font-feature-settings:normal;text-align:start;letter-spacing:0.97998369px;writing-mode:lr-tb;text-anchor:start;fill:#aaaaaa;fill-opacity:1;stroke-width:0.2121409px"
         id="path4780" />
      <path
         d="m 48.969838,295.17655 h 0.179919 l 0.797512,1.79281 h -0.261584 l -0.23734,-0.52827 h -0.757956 l -0.224579,0.52827 h -0.261585 z m 0.373874,1.03741 -0.287105,-0.64567 -0.266688,0.64567 z"
         style="font-style:normal;font-variant:normal;font-weight:normal;font-stretch:normal;font-size:2.61329007px;font-family:'Gill Sans';-inkscape-font-specification:'Gill Sans, Normal';font-variant-ligatures:normal;font-variant-caps:normal;font-variant-numeric:normal;font-feature-settings:normal;text-align:start;letter-spacing:0.97998369px;writing-mode:lr-tb;text-anchor:start;fill:#aaaaaa;fill-opacity:1;stroke-width:0.2121409px"
         id="path4782" />
      <path
         d="m 51.133971,296.96936 v -1.7826 h 0.446607 q 0.270516,0 0.428743,0.13398 0.159502,0.13398 0.159502,0.36239 0,0.15568 -0.07784,0.26924 -0.07784,0.11357 -0.223303,0.16971 0.08549,0.0562 0.167158,0.15313 0.08167,0.097 0.229684,0.33814 0.09315,0.15185 0.149294,0.22841 l 0.09443,0.1276 h -0.303693 l -0.07784,-0.11739 q -0.0038,-0.006 -0.01531,-0.0217 l -0.04977,-0.0702 -0.07911,-0.13015 -0.08549,-0.13909 q -0.07911,-0.10974 -0.145466,-0.17481 -0.06508,-0.0651 -0.11867,-0.0931 -0.05232,-0.0294 -0.177367,-0.0294 h -0.06635 v 0.77582 z m 0.331765,-1.56568 h -0.07656 v 0.56273 h 0.09698 q 0.193956,0 0.265413,-0.0332 0.07273,-0.0332 0.11229,-0.0995 0.04083,-0.0676 0.04083,-0.15312 0,-0.0842 -0.04466,-0.15185 -0.04466,-0.0689 -0.126326,-0.097 -0.08039,-0.0281 -0.267964,-0.0281 z"
         style="font-style:normal;font-variant:normal;font-weight:normal;font-stretch:normal;font-size:2.61329007px;font-family:'Gill Sans';-inkscape-font-specification:'Gill Sans, Normal';font-variant-ligatures:normal;font-variant-caps:normal;font-variant-numeric:normal;font-feature-settings:normal;text-align:start;letter-spacing:0.97998369px;writing-mode:lr-tb;text-anchor:start;fill:#aaaaaa;fill-opacity:1;stroke-width:0.2121409px"
         id="path4784" />
      <path
         d="m 55.099842,295.18676 h 0.242444 v 1.7826 H 55.12281 l -1.191803,-1.37172 v 1.37172 h -0.239892 v -1.7826 h 0.206715 l 1.202012,1.38321 z"
         style="font-style:normal;font-variant:normal;font-weight:normal;font-stretch:normal;font-size:2.61329007px;font-family:'Gill Sans';-inkscape-font-specification:'Gill Sans, Normal';font-variant-ligatures:normal;font-variant-caps:normal;font-variant-numeric:normal;font-feature-settings:normal;text-align:start;letter-spacing:0.97998369px;writing-mode:lr-tb;text-anchor:start;fill:#aaaaaa;fill-opacity:1;stroke-width:0.2121409px"
         id="path4786" />
      <path
         d="m 56.707625,295.18676 h 0.255204 v 1.7826 h -0.255204 z"
         style="font-style:normal;font-variant:normal;font-weight:normal;font-stretch:normal;font-size:2.61329007px;font-family:'Gill Sans';-inkscape-font-specification:'Gill Sans, Normal';font-variant-ligatures:normal;font-variant-caps:normal;font-variant-numeric:normal;font-feature-settings:normal;text-align:start;letter-spacing:0.97998369px;writing-mode:lr-tb;text-anchor:start;fill:#aaaaaa;fill-opacity:1;stroke-width:0.2121409px"
         id="path4788" />
      <path
         d="m 59.754764,295.18676 h 0.242444 v 1.7826 h -0.219475 l -1.191804,-1.37172 v 1.37172 h -0.239892 v -1.7826 h 0.206716 l 1.202011,1.38321 z"
         style="font-style:normal;font-variant:normal;font-weight:normal;font-stretch:normal;font-size:2.61329007px;font-family:'Gill Sans';-inkscape-font-specification:'Gill Sans, Normal';font-variant-ligatures:normal;font-variant-caps:normal;font-variant-numeric:normal;font-feature-settings:normal;text-align:start;letter-spacing:0.97998369px;writing-mode:lr-tb;text-anchor:start;fill:#aaaaaa;fill-opacity:1;stroke-width:0.2121409px"
         id="path4790" />
      <path
         d="m 62.323395,296.09146 h 0.598453 v 0.7554 q -0.329213,0.14292 -0.653322,0.14292 -0.442779,0 -0.708192,-0.25776 -0.264136,-0.25903 -0.264136,-0.63801 0,-0.39939 0.274345,-0.66481 0.274344,-0.26541 0.687775,-0.26541 0.15057,0 0.285828,0.0332 0.135258,0.0319 0.341974,0.11867 v 0.26031 q -0.319005,-0.18503 -0.632906,-0.18503 -0.292209,0 -0.492544,0.19906 -0.200336,0.19906 -0.200336,0.48872 0,0.30369 0.200336,0.49637 0.200335,0.19268 0.515512,0.19268 0.153122,0 0.366218,-0.0702 l 0.02424,-0.008 v -0.37132 h -0.343249 z"
         style="font-style:normal;font-variant:normal;font-weight:normal;font-stretch:normal;font-size:2.61329007px;font-family:'Gill Sans';-inkscape-font-specification:'Gill Sans, Normal';font-variant-ligatures:normal;font-variant-caps:normal;font-variant-numeric:normal;font-feature-settings:normal;text-align:start;letter-spacing:0.97998369px;writing-mode:lr-tb;text-anchor:start;fill:#aaaaaa;fill-opacity:1;stroke-width:0.2121409px"
         id="path4792" />
      <path
         d="m 68.38194,296.34921 v 0.42109 q -0.421087,0.22968 -0.972328,0.22968 -0.447883,0 -0.75987,-0.17991 -0.311987,-0.17992 -0.49382,-0.49574 -0.181833,-0.31581 -0.181833,-0.68331 0,-0.58378 0.415345,-0.98189 0.417258,-0.39812 1.027834,-0.39812 0.421087,0 0.935961,0.22011 v 0.41152 q -0.468937,-0.26797 -0.91682,-0.26797 -0.459368,0 -0.763699,0.29094 -0.302417,0.28901 -0.302417,0.72541 0,0.44023 0.298589,0.72351 0.298589,0.28327 0.763698,0.28327 0.486164,0 0.94936,-0.29859 z"
         style="font-size:3.91993475px;stroke-width:0.2121409px"
         id="path4794" />
      <path
         d="m 70.995229,295.18676 h 0.255204 v 1.7826 h -0.255204 v -0.77582 h -1.001676 v 0.77582 h -0.255204 v -1.7826 h 0.255204 v 0.77072 h 1.001676 z"
         style="font-style:normal;font-variant:normal;font-weight:normal;font-stretch:normal;font-size:2.61329007px;font-family:'Gill Sans';-inkscape-font-specification:'Gill Sans, Normal';font-variant-ligatures:normal;font-variant-caps:normal;font-variant-numeric:normal;font-feature-settings:normal;text-align:start;letter-spacing:0.97998369px;writing-mode:lr-tb;text-anchor:start;fill:#aaaaaa;fill-opacity:1;stroke-width:0.2121409px"
         id="path4796" />
      <path
         d="m 72.624705,295.18676 h 0.255204 v 1.7826 h -0.255204 z"
         style="font-style:normal;font-variant:normal;font-weight:normal;font-stretch:normal;font-size:2.61329007px;font-family:'Gill Sans';-inkscape-font-specification:'Gill Sans, Normal';font-variant-ligatures:normal;font-variant-caps:normal;font-variant-numeric:normal;font-feature-settings:normal;text-align:start;letter-spacing:0.97998369px;writing-mode:lr-tb;text-anchor:start;fill:#aaaaaa;fill-opacity:1;stroke-width:0.2121409px"
         id="path4798" />
      <path
         d="m 75.671844,295.18676 h 0.242444 v 1.7826 h -0.219476 l -1.191803,-1.37172 v 1.37172 h -0.239892 v -1.7826 h 0.206716 l 1.202011,1.38321 z"
         style="font-style:normal;font-variant:normal;font-weight:normal;font-stretch:normal;font-size:2.61329007px;font-family:'Gill Sans';-inkscape-font-specification:'Gill Sans, Normal';font-variant-ligatures:normal;font-variant-caps:normal;font-variant-numeric:normal;font-feature-settings:normal;text-align:start;letter-spacing:0.97998369px;writing-mode:lr-tb;text-anchor:start;fill:#aaaaaa;fill-opacity:1;stroke-width:0.2121409px"
         id="path4800" />
      <path
         d="m 77.277075,295.18676 h 1.010609 v 0.22713 h -0.755405 v 0.54359 h 0.729884 v 0.2284 h -0.729884 v 0.5538 h 0.779649 v 0.22713 h -1.034853 z"
         style="font-style:normal;font-variant:normal;font-weight:normal;font-stretch:normal;font-size:2.61329007px;font-family:'Gill Sans';-inkscape-font-specification:'Gill Sans, Normal';font-variant-ligatures:normal;font-variant-caps:normal;font-variant-numeric:normal;font-feature-settings:normal;text-align:start;letter-spacing:0.97998369px;writing-mode:lr-tb;text-anchor:start;fill:#aaaaaa;fill-opacity:1;stroke-width:0.2121409px"
         id="path4802" />
      <path
         d="m 80.005207,296.22161 -0.193955,-0.11739 q -0.182471,-0.11102 -0.260308,-0.2182 -0.07656,-0.10846 -0.07656,-0.24883 0,-0.21054 0.145466,-0.34197 0.146742,-0.13143 0.380254,-0.13143 0.223304,0 0.409603,0.12505 v 0.28966 q -0.192679,-0.18503 -0.414707,-0.18503 -0.12505,0 -0.205439,0.0587 -0.08039,0.0574 -0.08039,0.14802 0,0.0804 0.0587,0.15057 0.0587,0.0702 0.190127,0.14674 l 0.195232,0.11484 q 0.326661,0.19396 0.326661,0.4951 0,0.21437 -0.144191,0.34835 -0.142914,0.13399 -0.372598,0.13399 -0.264136,0 -0.481059,-0.16206 v -0.32411 q 0.206715,0.26159 0.478507,0.26159 0.119946,0 0.19906,-0.0664 0.08039,-0.0676 0.08039,-0.16843 0,-0.16333 -0.234788,-0.3088 z"
         style="font-style:normal;font-variant:normal;font-weight:normal;font-stretch:normal;font-size:2.61329007px;font-family:'Gill Sans';-inkscape-font-specification:'Gill Sans, Normal';font-variant-ligatures:normal;font-variant-caps:normal;font-variant-numeric:normal;font-feature-settings:normal;text-align:start;letter-spacing:0.97998369px;writing-mode:lr-tb;text-anchor:start;fill:#aaaaaa;fill-opacity:1;stroke-width:0.2121409px"
         id="path4804" />
      <path
         d="m 81.743147,295.18676 h 1.010609 v 0.22713 h -0.755404 v 0.54359 h 0.729883 v 0.2284 h -0.729883 v 0.5538 H 82.778 v 0.22713 h -1.034853 z"
         style="font-style:normal;font-variant:normal;font-weight:normal;font-stretch:normal;font-size:2.61329007px;font-family:'Gill Sans';-inkscape-font-specification:'Gill Sans, Normal';font-variant-ligatures:normal;font-variant-caps:normal;font-variant-numeric:normal;font-feature-settings:normal;text-align:start;letter-spacing:0.97998369px;writing-mode:lr-tb;text-anchor:start;fill:#aaaaaa;fill-opacity:1;stroke-width:0.2121409px"
         id="path4806" />
    </g>
  </g>
</svg>
