<?xml version="1.0" encoding="UTF-8" standalone="no"?>
<!-- Created with Inkscape (http://www.inkscape.org/) -->

<svg
   xmlns:dc="http://purl.org/dc/elements/1.1/"
   xmlns:cc="http://creativecommons.org/ns#"
   xmlns:rdf="http://www.w3.org/1999/02/22-rdf-syntax-ns#"
   xmlns:svg="http://www.w3.org/2000/svg"
   xmlns="http://www.w3.org/2000/svg"
   xmlns:sodipodi="http://sodipodi.sourceforge.net/DTD/sodipodi-0.dtd"
   xmlns:inkscape="http://www.inkscape.org/namespaces/inkscape"
   width="82.777992mm"
   height="12.788901mm"
   viewBox="0 0 82.777992 12.788901"
   version="1.1"
   id="svg8"
   inkscape:version="0.92.2 5c3e80d, 2017-08-06"
   sodipodi:docname="logo_dark_min.svg">
  <defs
     id="defs2" />
  <sodipodi:namedview
     id="base"
     pagecolor="#555555"
     bordercolor="#666666"
     borderopacity="1.0"
     inkscape:pageopacity="1"
     inkscape:pageshadow="2"
     inkscape:zoom="1.979899"
     inkscape:cx="180.88302"
     inkscape:cy="19.219871"
     inkscape:document-units="mm"
     inkscape:current-layer="text151"
     showgrid="false"
     inkscape:window-width="1440"
     inkscape:window-height="804"
     inkscape:window-x="0"
     inkscape:window-y="1"
     inkscape:window-maximized="1"
     inkscape:snap-text-baseline="false"
     showguides="true"
     fit-margin-top="0"
     fit-margin-left="0"
     fit-margin-right="0"
     fit-margin-bottom="0">
    <inkscape:grid
       type="xygrid"
       id="grid4686"
       originx="9.1490392e-07"
       originy="-3.9999844" />
  </sodipodi:namedview>
  <metadata
     id="metadata5">
    <rdf:RDF>
      <cc:Work
         rdf:about="">
        <dc:format>image/svg+xml</dc:format>
        <dc:type
           rdf:resource="http://purl.org/dc/dcmitype/StillImage" />
        <dc:title></dc:title>
      </cc:Work>
    </rdf:RDF>
  </metadata>
  <g
     inkscape:label="Layer 1"
     inkscape:groupmode="layer"
     id="layer1"
     transform="translate(9.1665014e-7,-280.21112)">
    <g
       aria-label="sino·study"
       transform="scale(0.99999755,1.0000025)"
       style="font-style:normal;font-weight:normal;font-size:10.58330727px;line-height:1.25;font-family:sans-serif;letter-spacing:0.01322914px;word-spacing:0px;fill:#000000;fill-opacity:1;stroke:none;stroke-width:0.26458266px;stroke-linecap:butt;stroke-linejoin:miter;stroke-opacity:1"
       id="text151">
      <path
         d="M -9.1665238e-7,287.5891 H 0.13969875 q 0.0888998,0.3048 0.22859944,0.6223 0.13969967,0.3048 0.36829911,0.5715 0.24129942,0.254 0.5841986,0.4191 0.3428992,0.1651 0.825498,0.1651 0.406399,0 0.7238982,-0.2413 0.3174993,-0.254 0.3174993,-0.8128 0,-0.4826 -0.2539994,-0.6731 -0.2412994,-0.2032 -0.5714986,-0.3175 l -0.9905976,-0.3429 q -0.1904996,-0.0635 -0.41909902,-0.1524 -0.21589948,-0.1016 -0.40639902,-0.2667 -0.19049954,-0.1778 -0.31749923,-0.4445 -0.11429972,-0.2667 -0.11429972,-0.68579 0,-0.3556 0.13969966,-0.6604 0.13969966,-0.3048 0.38099908,-0.5334 0.24129941,-0.2286 0.57149865,-0.3556 0.3428991,-0.127 0.7365982,-0.127 0.2793993,0 0.4444989,0.0508 0.1777996,0.0381 0.3047993,0.0889 0.1269997,0.0381 0.2285994,0.0889 0.1015998,0.0381 0.2412994,0.0381 0.1396997,0 0.2031995,-0.1016 h 0.1396997 v 1.4478 H 3.3654909 q -0.0889,-0.2794 -0.2031995,-0.5334 -0.1142997,-0.2667 -0.2793993,-0.4699 -0.1523996,-0.2032 -0.393699,-0.3175 -0.2285995,-0.1143 -0.5460987,-0.1143 -0.6095985,0 -0.95249771,0.2794 -0.3301992,0.2667 -0.3301992,0.7239 0,0.4064 0.27939932,0.6223 0.29209929,0.20319 0.85089799,0.38099 l 0.9270977,0.3048 q 0.5968986,0.2032 0.9778976,0.5588 0.3809991,0.3556 0.3809991,0.9398 0,0.3429 -0.1396996,0.6731 -0.1269997,0.3302 -0.3936991,0.5842 -0.2539994,0.2413 -0.6349984,0.3937 -0.3682992,0.1524 -0.850898,0.1524 -0.2793993,0 -0.5206987,-0.0635 -0.2285995,-0.0508 -0.431799,-0.1143 -0.19049953,-0.0635 -0.35559913,-0.1143 -0.1650996,-0.0635 -0.30479926,-0.0635 -0.13969966,0 -0.20319951,0.0635 -0.0634999,0.0508 -0.10159975,0.1143 H -9.1665238e-7 Z"
         style="font-size:12.69996929px;line-height:4.23332262px;text-align:center;letter-spacing:2.77811813px;text-anchor:middle;fill:#d5d5d5;stroke-width:0.26458266px;fill-opacity:1"
         id="path4941" />
      <path
         d="m 8.6554248,280.95972 q 0,-0.2794 0.1904995,-0.4699 0.2031995,-0.2032 0.4825989,-0.2032 0.2793993,0 0.4698988,0.2032 0.2032,0.1905 0.2032,0.4699 0,0.2794 -0.2032,0.4826 -0.1904995,0.19049 -0.4698988,0.19049 -0.2793994,0 -0.4825989,-0.19049 -0.1904995,-0.2032 -0.1904995,-0.4826 z m -0.825498,8.22958 h 0.9778976 v -5.09269 H 7.8299268 v -0.1778 h 2.070095 v 5.27049 h 0.9778972 v 0.1778 H 7.8299268 Z"
         style="font-size:12.69996929px;line-height:4.23332262px;text-align:center;letter-spacing:2.77811813px;text-anchor:middle;fill:#d5d5d5;stroke-width:0.26458266px;fill-opacity:1"
         id="path4943" />
      <path
         d="m 14.340249,289.1893 h 0.977897 v -5.09269 h -0.977897 v -0.1778 h 2.044695 v 1.3589 h 0.0254 q 0.0762,-0.1651 0.215899,-0.4191 0.1524,-0.254 0.406399,-0.4953 0.254,-0.2413 0.634999,-0.4064 0.380999,-0.1778 0.927097,-0.1778 0.838198,0 1.358897,0.4064 0.533399,0.4064 0.533399,1.2954 v 3.70839 h 0.977898 v 0.1778 h -3.047993 v -0.1778 h 0.977898 v -4.10209 q 0,-0.4953 -0.2413,-0.8128 -0.228599,-0.3175 -0.723898,-0.3175 -0.406399,0 -0.774698,0.1778 -0.368299,0.1778 -0.647699,0.4953 -0.279399,0.3175 -0.444499,0.7493 -0.152399,0.43179 -0.152399,0.93979 v 2.8702 h 0.977897 v 0.1778 h -3.047992 z"
         style="font-size:12.69996929px;line-height:4.23332262px;text-align:center;letter-spacing:2.77811813px;text-anchor:middle;fill:#d5d5d5;stroke-width:0.26458266px;fill-opacity:1"
         id="path4945" />
      <path
         d="m 26.406211,286.6493 q 0,0.9017 0.1397,1.4351 0.1397,0.5334 0.368299,0.8255 0.2286,0.2794 0.533399,0.3683 0.304799,0.0889 0.647698,0.0889 0.3429,0 0.647699,-0.0889 0.304799,-0.0889 0.533399,-0.3683 0.228599,-0.2921 0.368299,-0.8255 0.139699,-0.5334 0.139699,-1.4351 0,-0.762 -0.101599,-1.26999 -0.1016,-0.5207 -0.3175,-0.8382 -0.203199,-0.3302 -0.520698,-0.4699 -0.3175,-0.1397 -0.749299,-0.1397 -0.431799,0 -0.749298,0.1397 -0.317499,0.1397 -0.533398,0.4699 -0.2032,0.3175 -0.3048,0.8382 -0.1016,0.50799 -0.1016,1.26999 z m -1.269996,0 q 0,-0.6223 0.266699,-1.15569 0.279399,-0.5334 0.698498,-0.9144 0.431799,-0.3937 0.952498,-0.6096 0.533399,-0.2159 1.041397,-0.2159 0.507999,0 1.028698,0.2159 0.533399,0.2159 0.952498,0.6096 0.431799,0.381 0.698498,0.9144 0.279399,0.53339 0.279399,1.15569 0,0.5969 -0.253999,1.1303 -0.254,0.5207 -0.673099,0.9144 -0.406399,0.3937 -0.939797,0.6223 -0.533399,0.2286 -1.092198,0.2286 -0.558798,0 -1.092197,-0.2286 -0.533399,-0.2286 -0.952498,-0.6223 -0.406399,-0.3937 -0.660398,-0.9144 -0.253999,-0.5334 -0.253999,-1.1303 z"
         style="font-size:12.69996929px;line-height:4.23332262px;text-align:center;letter-spacing:2.77811813px;text-anchor:middle;fill:#d5d5d5;stroke-width:0.26458266px;fill-opacity:1"
         id="path4947" />
      <path
         d="m 35.50435,286.0143 q 0,-0.2794 0.1905,-0.46989 0.203199,-0.2032 0.482599,-0.2032 0.279399,0 0.469898,0.2032 0.2032,0.19049 0.2032,0.46989 0,0.2794 -0.2032,0.4826 -0.190499,0.1905 -0.469898,0.1905 -0.2794,0 -0.482599,-0.1905 -0.1905,-0.2032 -0.1905,-0.4826 z"
         style="font-size:12.69996929px;line-height:4.23332262px;text-align:center;letter-spacing:2.77811813px;text-anchor:middle;fill:#333333;fill-opacity:1;stroke-width:0.26458266px"
         id="path4949" />
      <path
         d="m 41.423728,287.5891 h 0.1397 q 0.0889,0.3048 0.228599,0.6223 0.1397,0.3048 0.368299,0.5715 0.2413,0.254 0.584199,0.4191 0.342899,0.1651 0.825498,0.1651 0.406399,0 0.723898,-0.2413 0.317499,-0.254 0.317499,-0.8128 0,-0.4826 -0.253999,-0.6731 -0.241299,-0.2032 -0.571499,-0.3175 l -0.990597,-0.3429 q -0.1905,-0.0635 -0.419099,-0.1524 -0.2159,-0.1016 -0.406399,-0.2667 -0.1905,-0.1778 -0.3175,-0.4445 -0.114299,-0.2667 -0.114299,-0.68579 0,-0.3556 0.139699,-0.6604 0.1397,-0.3048 0.380999,-0.5334 0.2413,-0.2286 0.571499,-0.3556 0.342899,-0.127 0.736598,-0.127 0.2794,0 0.444499,0.0508 0.1778,0.0381 0.3048,0.0889 0.126999,0.0381 0.228599,0.0889 0.1016,0.0381 0.241299,0.0381 0.1397,0 0.2032,-0.1016 h 0.1397 v 1.4478 h -0.1397 q -0.0889,-0.2794 -0.2032,-0.5334 -0.114299,-0.2667 -0.279399,-0.4699 -0.1524,-0.2032 -0.393699,-0.3175 -0.228599,-0.1143 -0.546099,-0.1143 -0.609598,0 -0.952497,0.2794 -0.3302,0.2667 -0.3302,0.7239 0,0.4064 0.2794,0.6223 0.292099,0.20319 0.850898,0.38099 l 0.927097,0.3048 q 0.596899,0.2032 0.977898,0.5588 0.380999,0.3556 0.380999,0.9398 0,0.3429 -0.139699,0.6731 -0.127,0.3302 -0.3937,0.5842 -0.253999,0.2413 -0.634998,0.3937 -0.368299,0.1524 -0.850898,0.1524 -0.279399,0 -0.520699,-0.0635 -0.228599,-0.0508 -0.431799,-0.1143 -0.190499,-0.0635 -0.355599,-0.1143 -0.165099,-0.0635 -0.304799,-0.0635 -0.1397,0 -0.2032,0.0635 -0.0635,0.0508 -0.101599,0.1143 h -0.1397 z"
         style="font-size:12.69996929px;line-height:4.23332262px;text-align:center;letter-spacing:2.77811813px;text-anchor:middle;fill:#c24f44;fill-opacity:1;stroke-width:0.26458266px"
         id="path4951" />
      <path
         d="m 49.113953,283.91881 h 0.977898 v -1.6383 q 0.1016,0.0381 0.190499,0.0635 0.0889,0.0254 0.3048,0.0254 0.190499,0 0.330199,-0.0381 0.1397,-0.0508 0.266699,-0.1524 v 1.7399 h 1.803396 v 0.1778 h -1.803396 v 4.15289 q 0,0.3556 0.0635,0.5842 0.0762,0.2159 0.1905,0.3429 0.114299,0.1143 0.241299,0.1524 0.1397,0.0381 0.266699,0.0381 0.444499,0 0.711199,-0.3175 0.279399,-0.3302 0.355599,-0.7493 l 0.177799,0.0635 q -0.0381,0.1651 -0.114299,0.3683 -0.0762,0.2032 -0.2413,0.3937 -0.152399,0.1778 -0.406399,0.2921 -0.253999,0.127 -0.634998,0.127 -0.952498,0 -1.333497,-0.3683 -0.368299,-0.3683 -0.368299,-1.0414 v -4.03859 h -0.977898 z"
         style="font-size:12.69996929px;line-height:4.23332262px;text-align:center;letter-spacing:2.77811813px;text-anchor:middle;fill:#c24f44;fill-opacity:1;stroke-width:0.26458266px"
         id="path4953" />
      <path
         d="m 63.144047,289.3671 h -2.044695 v -1.2827 h -0.0254 q -0.1143,0.254 -0.2794,0.5207 -0.152399,0.254 -0.393699,0.4699 -0.228599,0.2032 -0.546098,0.3302 -0.3048,0.1397 -0.723898,0.1397 -0.507999,0 -0.825498,-0.1143 -0.3175,-0.1143 -0.495299,-0.2413 -0.0889,-0.0635 -0.2032,-0.1524 -0.1016,-0.1016 -0.190499,-0.2667 -0.0889,-0.1651 -0.1524,-0.4191 -0.0635,-0.2667 -0.0635,-0.6477 v -3.60679 h -0.977897 v -0.1778 h 2.070095 v 3.89889 q 0,0.3302 0.0381,0.6096 0.0508,0.2794 0.1778,0.4953 0.127,0.2032 0.330199,0.3302 0.2032,0.1143 0.533399,0.1143 0.279399,0 0.571499,-0.1651 0.304799,-0.1651 0.546098,-0.4699 0.254,-0.3048 0.419099,-0.7239 0.1651,-0.4318 0.1651,-0.9652 v -2.94639 h -0.965198 v -0.1778 h 2.057395 v 5.27049 h 0.977898 z"
         style="font-size:12.69996929px;line-height:4.23332262px;text-align:center;letter-spacing:2.77811813px;text-anchor:middle;fill:#c24f44;fill-opacity:1;stroke-width:0.26458266px"
         id="path4955" />
      <path
         d="m 68.166881,286.4588 q 0,0.6604 0.0381,1.2065 0.0381,0.5334 0.1905,0.9144 0.152399,0.381 0.457199,0.5842 0.304799,0.2032 0.825498,0.2032 0.533398,0 0.850898,-0.2286 0.330199,-0.2286 0.507998,-0.5842 0.1778,-0.3683 0.2413,-0.8128 0.0635,-0.4445 0.0635,-0.8636 0,-0.4953 -0.0254,-0.8509 -0.0127,-0.3683 -0.0635,-0.64769 -0.0508,-0.2794 -0.1397,-0.4826 -0.0889,-0.2032 -0.215899,-0.381 -0.1905,-0.254 -0.495299,-0.4191 -0.304799,-0.1651 -0.774698,-0.1651 -0.444499,0 -0.736598,0.1778 -0.2794,0.1778 -0.444499,0.508 -0.1524,0.3302 -0.2159,0.8001 -0.0635,0.45719 -0.0635,1.04139 z m 2.197095,-6.24838 h 2.070095 v 8.97888 h 0.977898 v 0.1778 h -2.044695 v -1.1049 h -0.0254 q -0.0508,0.1524 -0.1524,0.3683 -0.1016,0.2159 -0.304799,0.4191 -0.1905,0.2032 -0.495299,0.3429 -0.292099,0.1524 -0.723898,0.1524 -0.558799,0 -1.066798,-0.2413 -0.495298,-0.2413 -0.876298,-0.6477 -0.380999,-0.4064 -0.609598,-0.9271 -0.2159,-0.5334 -0.2159,-1.1176 0,-0.5715 0.2159,-1.09219 0.215899,-0.5207 0.584199,-0.9017 0.368299,-0.3937 0.850897,-0.6223 0.482599,-0.2413 1.028698,-0.2413 0.698498,0 1.130297,0.3429 0.431799,0.3429 0.609599,0.8382 h 0.0254 v -4.54659 h -0.977898 z"
         style="font-size:12.69996929px;line-height:4.23332262px;text-align:center;letter-spacing:2.77811813px;text-anchor:middle;fill:#c24f44;fill-opacity:1;stroke-width:0.26458266px"
         id="path4957" />
      <path
         d="m 76.491712,283.91881 h 3.111492 v 0.1778 h -1.066797 l 1.638296,3.98779 1.714496,-3.98779 h -1.054098 v -0.1778 h 1.943096 v 0.1778 h -0.685799 l -2.095495,4.90219 q -0.241299,0.5461 -0.457199,1.09219 -0.215899,0.5588 -0.431799,1.1176 -0.177799,0.4572 -0.355599,0.8001 -0.177799,0.3429 -0.380999,0.5588 -0.190499,0.2159 -0.419099,0.3175 -0.228599,0.1143 -0.533398,0.1143 -0.3683,0 -0.596899,-0.1143 -0.215899,-0.1143 -0.342899,-0.2667 -0.127,-0.1524 -0.1651,-0.3175 -0.0381,-0.1651 -0.0381,-0.2794 0,-0.3175 0.1778,-0.4826 0.177799,-0.1524 0.431799,-0.1524 0.0889,0 0.190499,0.0127 0.1016,0.0254 0.1905,0.0762 0.0889,0.0508 0.1524,0.1397 0.0635,0.0889 0.0635,0.2159 0,0.1778 -0.114299,0.3302 -0.1016,0.1651 -0.1016,0.3556 0,0.1651 0.0889,0.2159 0.0889,0.0508 0.241299,0.0508 0.2032,0 0.368299,-0.1016 0.1778,-0.0889 0.342899,-0.3048 0.1651,-0.2159 0.3302,-0.5715 0.165099,-0.3429 0.368299,-0.8509 l 0.558798,-1.42239 -2.197094,-5.43559 h -0.876298 z"
         style="font-size:12.69996929px;line-height:4.23332262px;text-align:center;letter-spacing:2.77811813px;text-anchor:middle;fill:#c24f44;fill-opacity:1;stroke-width:0.26458266px"
         id="path4959" />
    </g>
    <text
       xml:space="preserve"
       style="font-style:normal;font-weight:normal;font-size:10.58333302px;line-height:1.25;font-family:sans-serif;letter-spacing:0px;word-spacing:0px;fill:#000000;fill-opacity:1;stroke:none;stroke-width:0.26458332px;stroke-linecap:butt;stroke-linejoin:miter;stroke-opacity:1"
       x="56.66114"
       y="47.370262"
       id="text155"><tspan
         sodipodi:role="line"
         id="tspan153"
         x="56.66114"
         y="56.734032"
         style="stroke-width:0.26458332px" /></text>
  </g>
</svg>
